<svg xmlns="http://www.w3.org/2000/svg" width="19.775" height="26.072" viewBox="0 0 19.775 26.072">
  <path id="_3" data-name="3" d="M2799.1,523.281h-5.582a2.791,2.791,0,1,0,5.582,0Zm5.329-12.647v8.056l1.3,1.151a1.4,1.4,0,0,1-.933,2.455H2787.83a1.4,1.4,0,0,1-.933-2.455l1.3-1.151V510.34a8.122,8.122,0,0,1,6.851-8.021v-1.05a1.268,1.268,0,0,1,1.269-1.269h0a1.269,1.269,0,0,1,1.269,1.269v1.051a8.07,8.07,0,0,1,2.044.608,5.715,5.715,0,0,0,4.807,7.705Z" transform="translate(-2786.425 -500)" fill="#fff" fill-rule="evenodd"/>
</svg>
